<svg width="133" height="133" viewBox="0 0 133 133" fill="none" xmlns="http://www.w3.org/2000/svg">
<path d="M96.3443 35.2147C93.4477 37.5014 74.8724 59.9317 67.8585 66.2165C64.3443 69.3601 66.0746 71.9758 66.0746 71.9758C67.122 72.0809 68.1707 73.6534 68.1707 73.6534C70.2135 73.888 73.407 70.5103 78.9602 61.817C86.4195 50.134 97.3918 35.8424 97.3918 35.8424C98.1258 34.3768 96.3443 35.2147 96.3443 35.2147Z" fill="white"/>
<path d="M61.1952 73.972C57.7559 79.9931 52.879 78.0692 52.879 78.4445C52.879 80.2211 59.0218 82.0809 62.4956 81.2258C66.7544 80.1784 67.8838 76.6689 67.8838 74.8923C67.8838 73.1145 63.5371 69.8771 61.1952 73.972Z" fill="white"/>
<path d="M73.4342 81.7422C70.8476 81.1947 68.7717 80.3932 67.1184 79.4015C66.1767 80.5736 64.767 81.6068 62.7066 82.1127C62.057 82.2743 61.3135 82.3549 60.4941 82.3549C57.0121 82.3549 51.9518 80.8289 51.9518 78.4384C51.9518 78.0155 52.2278 77.6462 52.6376 77.5179C52.7559 77.4823 52.88 77.4632 53.032 77.4632C53.1561 77.4632 53.2891 77.4751 53.4613 77.4881C53.6954 77.5077 53.9862 77.529 54.3277 77.529C56.827 77.529 58.865 76.177 60.3899 73.5102C60.7676 72.8505 61.1832 72.3635 61.6107 72.0031C59.1809 62.19 67.1569 49.0847 60.4029 49.0847C46.5591 49.0847 35.3363 60.0683 35.3363 73.616C35.3363 87.1636 46.5591 98.1453 60.4029 98.1453C74.2478 98.1455 81.3388 83.4132 73.4342 81.7422ZM54.0394 53.4803C55.5921 53.4803 56.8505 54.7392 56.8505 56.2908C56.8505 57.843 55.5921 59.1001 54.0394 59.1001C52.4889 59.1001 51.2319 57.843 51.2319 56.2908C51.2319 54.7391 52.489 53.4803 54.0394 53.4803ZM46.8354 59.5631C48.9227 59.5631 50.6138 61.2562 50.6138 63.3426C50.6138 65.4311 48.9227 67.1228 46.8354 67.1228C44.747 67.1228 43.0541 65.4311 43.0541 63.3426C43.0541 61.2562 44.747 59.5631 46.8354 59.5631ZM38.2015 75.1488C38.2015 72.4677 40.3731 70.2956 43.0541 70.2956C45.7345 70.2956 47.9072 72.4677 47.9072 75.1488C47.9072 77.8286 45.7345 80.0013 43.0541 80.0013C40.3731 80.0012 38.2015 77.8286 38.2015 75.1488ZM51.6874 94.4141C48.4144 94.4141 45.76 91.7609 45.76 88.4868C45.76 85.2149 48.4144 82.5606 51.6874 82.5606C54.9622 82.5606 57.6153 85.2149 57.6153 88.4868C57.6153 91.7609 54.9622 94.4141 51.6874 94.4141Z" fill="white"/>
</svg>
