<svg width="130" height="131" viewBox="0 0 130 131" fill="none" xmlns="http://www.w3.org/2000/svg">
<path d="M89.8137 91.3796C90.3683 91.3796 90.8178 90.93 90.8178 90.3755C90.8178 89.821 90.3683 89.3715 89.8137 89.3715C89.2592 89.3715 88.8097 89.821 88.8097 90.3755C88.8097 90.93 89.2592 91.3796 89.8137 91.3796Z" fill="white"/>
<path d="M95.504 86.4781L80.7755 71.7496C81.6212 70.151 82.271 68.4491 82.7042 66.6441L89.3362 65.3755V57.3306L82.7042 56.0619C82.1472 53.7928 81.2602 51.6578 80.0638 49.7084L83.8697 44.1079L78.1763 38.4248L72.5757 42.2204C70.6264 41.0342 68.4913 40.1266 66.212 39.58L64.9433 32.948H56.8983L55.6297 39.58C53.3606 40.1369 51.2152 41.0342 49.2762 42.2204L43.6756 38.4248L37.9823 44.1079L41.7882 49.7084C40.5917 51.6578 39.7047 53.7928 39.1478 56.0619L32.5157 57.3305V65.3755L39.1478 66.6441C39.6944 68.9339 40.5917 71.0689 41.7882 73.0079L37.9823 78.6085L43.6756 84.3019L49.2762 80.5063C51.2152 81.6924 53.3606 82.5794 55.6297 83.1364L56.8983 89.7787H64.9433L66.2119 83.1364C67.9447 82.7239 69.6053 82.105 71.1524 81.3005L85.9119 96.06C88.5665 98.7146 92.8465 98.7174 95.504 96.06C98.1444 93.4196 98.1444 89.1186 95.504 86.4781ZM48.9255 61.3633C48.9255 54.7314 54.2991 49.3577 60.9208 49.3577C64.4585 49.3577 67.6353 50.8842 69.8425 53.3183C66.2692 52.2595 63.7553 52.9655 62.406 53.0089L69.0587 59.6718L66.9958 67.5621L59.1055 69.6249L52.4529 62.962C52.3983 64.3581 51.7646 66.8227 52.6798 70.0788C50.3694 67.8922 48.9255 64.7979 48.9255 61.3633ZM94.0394 94.6057C92.1956 96.4496 89.2197 96.4489 87.3765 94.6057C83.3 90.5292 74.1913 81.4205 70.121 77.3502L69.5124 77.5358C62.3698 79.8757 55.1269 74.9653 54.3198 67.7478L58.4867 71.9146L68.6873 69.2536L71.3587 59.0427L67.1918 54.8758C74.4708 55.7348 79.2865 62.9667 76.9799 70.0788L76.7839 70.677C80.4395 74.3326 89.9299 83.8229 94.0394 87.9325C95.8753 89.7787 95.8753 92.7595 94.0394 94.6057Z" fill="white"/>
<path d="M65.3612 65.9229L66.8464 60.3484L62.7774 56.2794L57.2028 57.7646L55.7177 63.3391L59.7867 67.4081L65.3612 65.9229Z" fill="white"/>
</svg>
