<svg width="133" height="134" viewBox="0 0 133 134" fill="none" xmlns="http://www.w3.org/2000/svg">
<path fill-rule="evenodd" clip-rule="evenodd" d="M99.7666 89.1688C99.7666 93.1637 96.5296 96.4007 92.5347 96.4007H40.4652C36.4704 96.4007 33.2334 93.1637 33.2334 89.1688V47.2239C33.2334 44.0289 35.8238 41.4384 39.0189 41.4384H68.1937L79.9079 37.1948C80.6499 36.9243 81.4714 37.3076 81.7419 38.0467L82.9757 41.4384H88.1956C91.3907 41.4384 93.9811 44.0289 93.9811 47.2239V50.1167C97.1762 50.1167 99.7666 52.7071 99.7666 55.9022V89.1688ZM39.0189 44.3312C37.4221 44.3312 36.1261 45.6271 36.1261 47.2239C36.1261 48.8207 37.4221 50.1167 39.0189 50.1167H44.0016H44.275C44.2938 50.1095 44.3054 50.0935 44.3242 50.0863L60.2083 44.3312H39.0189ZM81.0766 44.593L79.5405 40.3638L76.5726 41.4384H76.5769L68.6016 44.3312H68.5871L52.6206 50.1167H83.0841L81.0766 44.593ZM91.0884 47.2239C91.0884 45.6271 89.7924 44.3312 88.1956 44.3312H84.0257L86.1287 50.1167H91.0884V47.2239ZM93.9811 53.0094H39.0189C37.9601 53.0094 36.9795 52.7042 36.1261 52.2067V89.1688C36.1261 91.5655 38.07 93.5079 40.4652 93.5079H92.5347C94.9314 93.5079 96.8739 91.5655 96.8739 89.1688V79.0442H91.0884C87.8933 79.0442 85.3029 76.4537 85.3029 73.2587C85.3029 70.0636 87.8933 67.4732 91.0884 67.4732H96.8739V55.9022C96.8739 54.3054 95.5779 53.0094 93.9811 53.0094ZM96.8739 76.1514V70.3659H91.0884C89.4916 70.3659 88.1956 71.6619 88.1956 73.2587C88.1956 74.8555 89.4916 76.1514 91.0884 76.1514H96.8739ZM91.0884 71.8123H93.9811V74.7051H91.0884V71.8123Z" fill="white"/>
</svg>
